<svg width="200" height="80" viewBox="0 0 839 227" fill="transparent" xmlns="http://www.w3.org/2000/svg">
<rect width="839" height="227" fill="transparent"/>
<path d="M144.906 0L255.271 222.499C256.381 224.736 254.431 227.271 251.984 226.771L222.095 220.668C200.092 216.175 179.972 204.593 164.943 187.905V187.905C161.247 183.801 158.047 179.212 155.485 174.318L104 76L144.906 0Z" fill="#0F9CD1"/>
<path d="M132 128H209.4L218 143H141.829L132 128Z" fill="white"/>
<path d="M88 128H132.935L141 143H93.7609L88 128Z" fill="#0F9CD1"/>
<path d="M75.0465 121L103 171V171C85.7396 201.873 53.1338 221 17.763 221H3.77421C1.02045 221 -0.526378 217.831 1.1679 215.66L75.0465 121Z" fill="#13CD44"/>
<path d="M234.971 103H220.141L242.737 37.5455H260.571L283.135 103H268.305L251.91 52.5028H251.398L234.971 103ZM234.044 77.272H269.072V88.0746H234.044V77.272ZM322.316 103H299.113V37.5455H322.508C329.092 37.5455 334.759 38.8558 339.511 41.4766C344.262 44.076 347.916 47.8153 350.473 52.6946C353.051 57.5739 354.34 63.4119 354.34 70.2088C354.34 77.027 353.051 82.8864 350.473 87.7869C347.916 92.6875 344.241 96.4482 339.447 99.0689C334.674 101.69 328.964 103 322.316 103ZM312.952 91.1428H321.741C325.832 91.1428 329.273 90.4183 332.064 88.9695C334.877 87.4993 336.986 85.2301 338.392 82.1619C339.82 79.0724 340.534 75.0881 340.534 70.2088C340.534 65.3722 339.82 61.4197 338.392 58.3516C336.986 55.2834 334.887 53.0249 332.096 51.576C329.305 50.1271 325.864 49.4027 321.773 49.4027H312.952V91.1428ZM380.826 37.5455L396.646 87.2756H397.253L413.105 37.5455H428.446L405.882 103H388.049L365.453 37.5455H380.826ZM447.005 103H432.176L454.772 37.5455H472.605L495.169 103H480.34L463.944 52.5028H463.433L447.005 103ZM446.078 77.272H481.107V88.0746H446.078V77.272ZM565.895 37.5455V103H553.942L525.466 61.8033H524.986V103H511.148V37.5455H523.292L551.545 78.7102H552.121V37.5455H565.895ZM582.936 48.9553V37.5455H636.693V48.9553H616.654V103H602.975V48.9553H582.936ZM656.93 103H642.101L664.697 37.5455H682.53L705.094 103H690.265L673.869 52.5028H673.358L656.93 103ZM656.003 77.272H691.032V88.0746H656.003V77.272ZM761.398 58.7031C760.951 57.1477 760.322 55.7734 759.513 54.5803C758.703 53.3658 757.712 52.343 756.54 51.5121C755.39 50.6598 754.069 50.0099 752.577 49.5625C751.107 49.1151 749.477 48.8913 747.687 48.8913C744.342 48.8913 741.402 49.7223 738.866 51.3842C736.352 53.0462 734.392 55.4645 732.986 58.6392C731.579 61.7926 730.876 65.6491 730.876 70.2088C730.876 74.7685 731.569 78.6463 732.954 81.8423C734.339 85.0384 736.299 87.478 738.834 89.1612C741.37 90.8232 744.364 91.6541 747.815 91.6541C750.947 91.6541 753.621 91.1001 755.837 89.9922C758.074 88.8629 759.779 87.2756 760.951 85.2301C762.144 83.1847 762.741 80.7663 762.741 77.9751L765.553 78.3906H748.678V67.9716H776.068V76.2173C776.068 81.9702 774.854 86.9134 772.425 91.0469C769.996 95.1591 766.65 98.3338 762.389 100.571C758.128 102.787 753.248 103.895 747.751 103.895C741.615 103.895 736.224 102.542 731.579 99.8359C726.935 97.1087 723.312 93.2415 720.713 88.2344C718.135 83.206 716.846 77.2401 716.846 70.3366C716.846 65.0312 717.613 60.3011 719.147 56.1463C720.702 51.9702 722.876 48.4332 725.667 45.5355C728.458 42.6378 731.707 40.4325 735.415 38.9197C739.122 37.407 743.138 36.6506 747.464 36.6506C751.171 36.6506 754.623 37.1939 757.819 38.2805C761.015 39.3459 763.849 40.8587 766.32 42.8189C768.813 44.7791 770.848 47.1122 772.425 49.8182C774.001 52.5028 775.013 55.4645 775.461 58.7031H761.398ZM794.563 103V37.5455H838.668V48.9553H808.402V64.5518H836.399V75.9616H808.402V91.5902H838.796V103H794.563Z" fill="#0F9CD1" fill-opacity="0.9"/>
<path d="M232.733 169V132.636H247.079C249.837 132.636 252.187 133.163 254.128 134.217C256.069 135.258 257.549 136.708 258.567 138.567C259.597 140.413 260.112 142.544 260.112 144.959C260.112 147.374 259.591 149.504 258.549 151.351C257.508 153.197 255.998 154.636 254.022 155.665C252.057 156.695 249.677 157.21 246.884 157.21H237.74V151.049H245.641C247.121 151.049 248.34 150.795 249.299 150.286C250.269 149.765 250.991 149.049 251.465 148.137C251.95 147.214 252.193 146.154 252.193 144.959C252.193 143.751 251.95 142.698 251.465 141.798C250.991 140.887 250.269 140.183 249.299 139.685C248.328 139.176 247.097 138.922 245.605 138.922H240.421V169H232.733ZM303.022 150.818C303.022 154.784 302.27 158.157 300.767 160.939C299.275 163.721 297.239 165.845 294.659 167.313C292.09 168.769 289.202 169.497 285.994 169.497C282.763 169.497 279.862 168.763 277.294 167.295C274.725 165.828 272.695 163.703 271.204 160.921C269.712 158.139 268.966 154.772 268.966 150.818C268.966 146.853 269.712 143.479 271.204 140.697C272.695 137.916 274.725 135.797 277.294 134.341C279.862 132.873 282.763 132.139 285.994 132.139C289.202 132.139 292.09 132.873 294.659 134.341C297.239 135.797 299.275 137.916 300.767 140.697C302.27 143.479 303.022 146.853 303.022 150.818ZM295.227 150.818C295.227 148.25 294.842 146.083 294.073 144.32C293.315 142.556 292.244 141.218 290.859 140.307C289.474 139.395 287.853 138.94 285.994 138.94C284.136 138.94 282.514 139.395 281.129 140.307C279.744 141.218 278.667 142.556 277.897 144.32C277.14 146.083 276.761 148.25 276.761 150.818C276.761 153.387 277.14 155.553 277.897 157.317C278.667 159.08 279.744 160.418 281.129 161.33C282.514 162.241 284.136 162.697 285.994 162.697C287.853 162.697 289.474 162.241 290.859 161.33C292.244 160.418 293.315 159.08 294.073 157.317C294.842 155.553 295.227 153.387 295.227 150.818ZM320.905 132.636V169H313.217V132.636H320.905ZM362.146 132.636V169H355.505L339.685 146.113H339.419V169H331.731V132.636H338.478L354.174 155.506H354.493V132.636H362.146ZM371.613 138.975V132.636H401.478V138.975H390.345V169H382.746V138.975H371.613ZM426.969 132.636H436.45L446.465 157.068H446.891L456.905 132.636H466.386V169H458.929V145.332H458.627L449.217 168.822H444.139L434.728 145.243H434.426V169H426.969V132.636ZM483.489 169H475.25L487.803 132.636H497.711L510.246 169H502.008L492.899 140.946H492.615L483.489 169ZM482.974 154.707H502.434V160.708H482.974V154.707ZM519.123 169V132.636H533.47C536.216 132.636 538.56 133.128 540.501 134.11C542.454 135.081 543.94 136.46 544.958 138.247C545.988 140.023 546.502 142.112 546.502 144.515C546.502 146.93 545.982 149.007 544.94 150.747C543.898 152.475 542.389 153.801 540.412 154.724C538.447 155.648 536.068 156.109 533.274 156.109H523.669V149.93H532.032C533.499 149.93 534.719 149.729 535.689 149.327C536.66 148.924 537.382 148.321 537.855 147.516C538.341 146.711 538.583 145.71 538.583 144.515C538.583 143.308 538.341 142.29 537.855 141.461C537.382 140.632 536.654 140.005 535.671 139.579C534.701 139.141 533.476 138.922 531.996 138.922H526.811V169H519.123ZM538.761 152.452L547.799 169H539.311L530.469 152.452H538.761ZM556.436 169V132.636H564.124V148.67H564.603L577.689 132.636H586.904L573.41 148.918L587.064 169H577.867L567.906 154.05L564.124 158.666V169H556.436ZM595.408 169V132.636H619.911V138.975H603.097V147.64H618.651V153.979H603.097V162.661H619.982V169H595.408ZM629.139 138.975V132.636H659.004V138.975H647.871V169H640.271V138.975H629.139ZM676.11 132.636V169H668.422V132.636H676.11ZM717.351 132.636V169H710.711L694.89 146.113H694.624V169H686.936V132.636H693.683L709.379 155.506H709.698V132.636H717.351ZM752.315 144.391C752.067 143.527 751.718 142.763 751.268 142.1C750.818 141.425 750.268 140.857 749.617 140.396C748.977 139.922 748.243 139.561 747.415 139.312C746.598 139.064 745.693 138.94 744.698 138.94C742.84 138.94 741.206 139.401 739.798 140.325C738.401 141.248 737.312 142.591 736.531 144.355C735.749 146.107 735.359 148.25 735.359 150.783C735.359 153.316 735.743 155.47 736.513 157.246C737.282 159.021 738.371 160.377 739.78 161.312C741.189 162.235 742.852 162.697 744.769 162.697C746.509 162.697 747.995 162.389 749.226 161.773C750.469 161.146 751.416 160.264 752.067 159.128C752.73 157.991 753.061 156.648 753.061 155.097L754.624 155.328H745.249V149.54H760.465V154.121C760.465 157.317 759.791 160.063 758.441 162.359C757.092 164.644 755.233 166.408 752.866 167.651C750.498 168.882 747.788 169.497 744.734 169.497C741.325 169.497 738.33 168.746 735.749 167.242C733.169 165.727 731.157 163.579 729.712 160.797C728.28 158.003 727.564 154.689 727.564 150.854C727.564 147.906 727.99 145.278 728.842 142.97C729.707 140.65 730.914 138.685 732.465 137.075C734.015 135.465 735.82 134.24 737.88 133.4C739.94 132.559 742.171 132.139 744.574 132.139C746.634 132.139 748.551 132.441 750.327 133.045C752.102 133.637 753.677 134.477 755.05 135.566C756.435 136.655 757.565 137.951 758.441 139.455C759.317 140.946 759.879 142.591 760.128 144.391H752.315Z" fill="#13CD44" fill-opacity="0.9"/>
</svg>
