<svg width="165" height="29" viewBox="0 0 165 29" fill="none" xmlns="http://www.w3.org/2000/svg">
<rect width="165" height="29" fill="white"/>
<path d="M12.733 8.36364V12.4545H0.613636V8.36364H12.733ZM3.38778 28V6.9446C3.38778 5.52131 3.66477 4.34091 4.21875 3.40341C4.78125 2.46591 5.5483 1.76278 6.51989 1.29403C7.49148 0.825282 8.59517 0.590907 9.83097 0.590907C10.6662 0.590907 11.429 0.654828 12.1193 0.78267C12.8182 0.910511 13.3381 1.02557 13.679 1.12784L12.7074 5.21875C12.4943 5.15057 12.2301 5.08665 11.9148 5.02699C11.608 4.96733 11.2926 4.9375 10.9688 4.9375C10.1676 4.9375 9.60938 5.125 9.29403 5.5C8.97869 5.86648 8.82102 6.3821 8.82102 7.04688V28H3.38778ZM20.9563 28.3707C19.7035 28.3707 18.587 28.1534 17.6069 27.7188C16.6268 27.2756 15.8512 26.6236 15.2802 25.7628C14.7177 24.8935 14.4364 23.8111 14.4364 22.5156C14.4364 21.4247 14.6367 20.5085 15.0373 19.767C15.4379 19.0256 15.9833 18.429 16.6737 17.9773C17.364 17.5256 18.1481 17.1847 19.0259 16.9545C19.9123 16.7244 20.8413 16.5625 21.8129 16.4688C22.9549 16.3494 23.8754 16.2386 24.5742 16.1364C25.2731 16.0256 25.7802 15.8636 26.0955 15.6506C26.4109 15.4375 26.5685 15.1222 26.5685 14.7045V14.6278C26.5685 13.8182 26.3129 13.1918 25.8015 12.7486C25.2987 12.3054 24.5827 12.0838 23.6538 12.0838C22.6737 12.0838 21.8938 12.3011 21.3143 12.7358C20.7347 13.1619 20.3512 13.6989 20.1637 14.3466L15.1268 13.9375C15.3825 12.7443 15.8853 11.7131 16.6353 10.8438C17.3853 9.96591 18.3526 9.29261 19.5373 8.82386C20.7305 8.34659 22.1112 8.10795 23.6793 8.10795C24.7702 8.10795 25.8143 8.2358 26.8114 8.49148C27.8171 8.74716 28.7077 9.14347 29.4833 9.6804C30.2674 10.2173 30.8853 10.9077 31.337 11.7514C31.7887 12.5866 32.0146 13.5881 32.0146 14.7557V28H26.8498V25.277H26.6964C26.381 25.8906 25.9592 26.4318 25.4308 26.9006C24.9023 27.3608 24.2674 27.723 23.5259 27.9872C22.7844 28.2429 21.9279 28.3707 20.9563 28.3707ZM22.516 24.6122C23.3171 24.6122 24.0245 24.4545 24.6381 24.1392C25.2518 23.8153 25.7333 23.3807 26.0827 22.8352C26.4322 22.2898 26.6069 21.6719 26.6069 20.9815V18.8977C26.4364 19.0085 26.2021 19.1108 25.9038 19.2045C25.614 19.2898 25.2859 19.3707 24.9194 19.4474C24.5529 19.5156 24.1864 19.5795 23.82 19.6392C23.4535 19.6903 23.1211 19.7372 22.8228 19.7798C22.1836 19.8736 21.6254 20.0227 21.1481 20.2273C20.6708 20.4318 20.3001 20.7088 20.0359 21.0582C19.7717 21.3991 19.6396 21.8253 19.6396 22.3366C19.6396 23.0781 19.908 23.6449 20.445 24.0369C20.9904 24.4205 21.6808 24.6122 22.516 24.6122ZM45.1119 28.3835C43.1005 28.3835 41.3704 27.9574 39.9215 27.1051C38.4812 26.2443 37.3732 25.0511 36.5977 23.5256C35.8306 22 35.4471 20.2443 35.4471 18.2585C35.4471 16.2472 35.8349 14.483 36.6104 12.9659C37.3945 11.4403 38.5067 10.2514 39.9471 9.39915C41.3874 8.53835 43.1005 8.10795 45.0863 8.10795C46.7994 8.10795 48.2994 8.41903 49.5863 9.04119C50.8732 9.66335 51.8917 10.5369 52.6417 11.6619C53.3917 12.7869 53.805 14.108 53.8817 15.625H48.7425C48.5977 14.6449 48.2141 13.8565 47.592 13.2599C46.9783 12.6548 46.1729 12.3523 45.1758 12.3523C44.332 12.3523 43.5948 12.5824 42.9641 13.0426C42.342 13.4943 41.8562 14.1548 41.5067 15.0241C41.1573 15.8935 40.9826 16.946 40.9826 18.1818C40.9826 19.4347 41.1531 20.5 41.494 21.3778C41.8434 22.2557 42.3335 22.9247 42.9641 23.3849C43.5948 23.8452 44.332 24.0753 45.1758 24.0753C45.7979 24.0753 46.3562 23.9474 46.8505 23.6918C47.3533 23.4361 47.7667 23.0653 48.0906 22.5795C48.4229 22.0852 48.6403 21.4929 48.7425 20.8026H53.8817C53.7965 22.3026 53.3874 23.6236 52.6545 24.7656C51.93 25.8991 50.9286 26.7855 49.6502 27.4247C48.3718 28.0639 46.859 28.3835 45.1119 28.3835ZM66.3175 28.3835C64.2976 28.3835 62.5589 27.9744 61.1016 27.1562C59.6527 26.3295 58.5362 25.1619 57.7521 23.6534C56.968 22.1364 56.576 20.3423 56.576 18.2713C56.576 16.2514 56.968 14.4787 57.7521 12.9531C58.5362 11.4276 59.6399 10.2386 61.0632 9.38636C62.495 8.53409 64.174 8.10795 66.1001 8.10795C67.3956 8.10795 68.6016 8.31676 69.718 8.73438C70.843 9.14347 71.8232 9.76136 72.6584 10.5881C73.5021 11.4148 74.1584 12.4545 74.6271 13.7074C75.0959 14.9517 75.3303 16.4091 75.3303 18.0795V19.5753H58.7493V16.2003H70.2038C70.2038 15.4162 70.0334 14.7216 69.6925 14.1165C69.3516 13.5114 68.8786 13.0384 68.2734 12.6974C67.6768 12.348 66.9822 12.1733 66.1896 12.1733C65.3629 12.1733 64.63 12.3651 63.9908 12.7486C63.3601 13.1236 62.8658 13.6307 62.5078 14.2699C62.1499 14.9006 61.9666 15.6037 61.9581 16.3793V19.5881C61.9581 20.5597 62.1371 21.3991 62.495 22.1065C62.8615 22.8139 63.3771 23.3594 64.0419 23.7429C64.7067 24.1264 65.495 24.3182 66.407 24.3182C67.0121 24.3182 67.5661 24.233 68.0689 24.0625C68.5717 23.892 69.0021 23.6364 69.3601 23.2955C69.718 22.9545 69.9908 22.5369 70.1783 22.0426L75.2152 22.375C74.9595 23.5852 74.4354 24.642 73.6428 25.5455C72.8587 26.4403 71.8445 27.1392 70.6001 27.642C69.3643 28.1364 67.9368 28.3835 66.3175 28.3835ZM78.9865 28V1.81818H84.4325V11.6619H84.5987C84.8374 11.1335 85.1825 10.5966 85.6342 10.0511C86.0945 9.49716 86.6911 9.03693 87.424 8.67045C88.1655 8.29545 89.0859 8.10795 90.1854 8.10795C91.6172 8.10795 92.9382 8.48295 94.1484 9.23295C95.3587 9.97443 96.326 11.0952 97.0504 12.5952C97.7749 14.0866 98.1371 15.9574 98.1371 18.2074C98.1371 20.3977 97.7834 22.2472 97.076 23.7557C96.3771 25.2557 95.4226 26.3935 94.2124 27.169C93.0107 27.9361 91.6641 28.3196 90.1726 28.3196C89.1158 28.3196 88.2166 28.1449 87.4751 27.7955C86.7422 27.446 86.1413 27.0071 85.6726 26.4787C85.2038 25.9418 84.8459 25.4006 84.5987 24.8551H84.3558V28H78.9865ZM84.3175 18.1818C84.3175 19.3494 84.4794 20.3679 84.8033 21.2372C85.1271 22.1065 85.5959 22.7841 86.2095 23.2699C86.8232 23.7472 87.5689 23.9858 88.4467 23.9858C89.3331 23.9858 90.0831 23.7429 90.6967 23.2571C91.3104 22.7628 91.7749 22.081 92.0902 21.2116C92.4141 20.3338 92.576 19.3239 92.576 18.1818C92.576 17.0483 92.4183 16.0511 92.103 15.1903C91.7876 14.3295 91.3232 13.6562 90.7095 13.1705C90.0959 12.6847 89.3416 12.4418 88.4467 12.4418C87.5604 12.4418 86.8104 12.6761 86.1967 13.1449C85.5916 13.6136 85.1271 14.2784 84.8033 15.1392C84.4794 16 84.3175 17.0142 84.3175 18.1818ZM110.643 28.3835C108.657 28.3835 106.94 27.9616 105.491 27.1179C104.051 26.2656 102.939 25.081 102.154 23.5639C101.37 22.0384 100.978 20.2699 100.978 18.2585C100.978 16.2301 101.37 14.4574 102.154 12.9403C102.939 11.4148 104.051 10.2301 105.491 9.38636C106.94 8.53409 108.657 8.10795 110.643 8.10795C112.629 8.10795 114.342 8.53409 115.782 9.38636C117.231 10.2301 118.348 11.4148 119.132 12.9403C119.916 14.4574 120.308 16.2301 120.308 18.2585C120.308 20.2699 119.916 22.0384 119.132 23.5639C118.348 25.081 117.231 26.2656 115.782 27.1179C114.342 27.9616 112.629 28.3835 110.643 28.3835ZM110.669 24.1648C111.572 24.1648 112.326 23.9091 112.931 23.3977C113.537 22.8778 113.993 22.1705 114.299 21.2756C114.615 20.3807 114.772 19.3622 114.772 18.2202C114.772 17.0781 114.615 16.0597 114.299 15.1648C113.993 14.2699 113.537 13.5625 112.931 13.0426C112.326 12.5227 111.572 12.2628 110.669 12.2628C109.757 12.2628 108.99 12.5227 108.368 13.0426C107.754 13.5625 107.289 14.2699 106.974 15.1648C106.667 16.0597 106.514 17.0781 106.514 18.2202C106.514 19.3622 106.667 20.3807 106.974 21.2756C107.289 22.1705 107.754 22.8778 108.368 23.3977C108.99 23.9091 109.757 24.1648 110.669 24.1648ZM132.721 28.3835C130.735 28.3835 129.018 27.9616 127.569 27.1179C126.129 26.2656 125.017 25.081 124.233 23.5639C123.449 22.0384 123.056 20.2699 123.056 18.2585C123.056 16.2301 123.449 14.4574 124.233 12.9403C125.017 11.4148 126.129 10.2301 127.569 9.38636C129.018 8.53409 130.735 8.10795 132.721 8.10795C134.707 8.10795 136.42 8.53409 137.86 9.38636C139.309 10.2301 140.426 11.4148 141.21 12.9403C141.994 14.4574 142.386 16.2301 142.386 18.2585C142.386 20.2699 141.994 22.0384 141.21 23.5639C140.426 25.081 139.309 26.2656 137.86 27.1179C136.42 27.9616 134.707 28.3835 132.721 28.3835ZM132.747 24.1648C133.65 24.1648 134.404 23.9091 135.01 23.3977C135.615 22.8778 136.071 22.1705 136.377 21.2756C136.693 20.3807 136.85 19.3622 136.85 18.2202C136.85 17.0781 136.693 16.0597 136.377 15.1648C136.071 14.2699 135.615 13.5625 135.01 13.0426C134.404 12.5227 133.65 12.2628 132.747 12.2628C131.835 12.2628 131.068 12.5227 130.446 13.0426C129.832 13.5625 129.368 14.2699 129.052 15.1648C128.745 16.0597 128.592 17.0781 128.592 18.2202C128.592 19.3622 128.745 20.3807 129.052 21.2756C129.368 22.1705 129.832 22.8778 130.446 23.3977C131.068 23.9091 131.835 24.1648 132.747 24.1648ZM150.862 22.3494L150.875 15.8168H151.667L157.957 8.36364H164.208L155.758 18.233H154.467L150.862 22.3494ZM145.927 28V1.81818H151.373V28H145.927ZM158.2 28L152.422 19.4474L156.052 15.5994L164.579 28H158.2Z" fill="#959292"/>
</svg>
