<svg width="124" height="35" viewBox="0 0 124 35" fill="none" xmlns="http://www.w3.org/2000/svg">
<rect width="124" height="35" fill="white"/>
<path d="M18.6364 9.28125C18.4574 8.65909 18.206 8.10937 17.8821 7.6321C17.5582 7.14631 17.1619 6.73722 16.6932 6.40483C16.233 6.06392 15.7045 5.80398 15.108 5.625C14.5199 5.44602 13.8679 5.35653 13.152 5.35653C11.8139 5.35653 10.6378 5.68892 9.62358 6.35369C8.6179 7.01846 7.83381 7.98579 7.27131 9.25568C6.70881 10.517 6.42756 12.0597 6.42756 13.8835C6.42756 15.7074 6.70455 17.2585 7.25852 18.5369C7.8125 19.8153 8.59659 20.7912 9.6108 21.4645C10.625 22.1293 11.8224 22.4616 13.2031 22.4616C14.456 22.4616 15.5256 22.2401 16.4119 21.7969C17.3068 21.3452 17.9886 20.7102 18.4574 19.892C18.9347 19.0739 19.1733 18.1065 19.1733 16.9901L20.2983 17.1562H13.5483V12.9886H24.5043V16.2869C24.5043 18.5881 24.0185 20.5653 23.0469 22.2188C22.0753 23.8636 20.7372 25.1335 19.0327 26.0284C17.3281 26.9148 15.3764 27.358 13.1776 27.358C10.723 27.358 8.56676 26.8168 6.70881 25.7344C4.85085 24.6435 3.40199 23.0966 2.36222 21.0938C1.33097 19.0824 0.815341 16.696 0.815341 13.9347C0.815341 11.8125 1.12216 9.92045 1.7358 8.25852C2.35795 6.58807 3.22727 5.1733 4.34375 4.0142C5.46023 2.85511 6.75994 1.97301 8.2429 1.3679C9.72585 0.762783 11.3324 0.460226 13.0625 0.460226C14.5455 0.460226 15.9261 0.677556 17.2045 1.11222C18.483 1.53835 19.6165 2.14347 20.6051 2.92756C21.6023 3.71165 22.4162 4.64489 23.0469 5.72727C23.6776 6.80114 24.0824 7.98579 24.2614 9.28125H18.6364ZM37.4322 27.3835C35.4464 27.3835 33.729 26.9616 32.2802 26.1179C30.8398 25.2656 29.7276 24.081 28.9435 22.5639C28.1594 21.0384 27.7674 19.2699 27.7674 17.2585C27.7674 15.2301 28.1594 13.4574 28.9435 11.9403C29.7276 10.4148 30.8398 9.23011 32.2802 8.38636C33.729 7.53409 35.4464 7.10795 37.4322 7.10795C39.418 7.10795 41.131 7.53409 42.5714 8.38636C44.0202 9.23011 45.1367 10.4148 45.9208 11.9403C46.7049 13.4574 47.0969 15.2301 47.0969 17.2585C47.0969 19.2699 46.7049 21.0384 45.9208 22.5639C45.1367 24.081 44.0202 25.2656 42.5714 26.1179C41.131 26.9616 39.418 27.3835 37.4322 27.3835ZM37.4577 23.1648C38.3612 23.1648 39.1154 22.9091 39.7205 22.3977C40.3256 21.8778 40.7816 21.1705 41.0884 20.2756C41.4038 19.3807 41.5614 18.3622 41.5614 17.2202C41.5614 16.0781 41.4038 15.0597 41.0884 14.1648C40.7816 13.2699 40.3256 12.5625 39.7205 12.0426C39.1154 11.5227 38.3612 11.2628 37.4577 11.2628C36.5458 11.2628 35.7788 11.5227 35.1566 12.0426C34.543 12.5625 34.0785 13.2699 33.7631 14.1648C33.4563 15.0597 33.3029 16.0781 33.3029 17.2202C33.3029 18.3622 33.4563 19.3807 33.7631 20.2756C34.0785 21.1705 34.543 21.8778 35.1566 22.3977C35.7788 22.9091 36.5458 23.1648 37.4577 23.1648ZM59.5103 27.3835C57.5245 27.3835 55.8072 26.9616 54.3583 26.1179C52.918 25.2656 51.8058 24.081 51.0217 22.5639C50.2376 21.0384 49.8455 19.2699 49.8455 17.2585C49.8455 15.2301 50.2376 13.4574 51.0217 11.9403C51.8058 10.4148 52.918 9.23011 54.3583 8.38636C55.8072 7.53409 57.5245 7.10795 59.5103 7.10795C61.4961 7.10795 63.2092 7.53409 64.6495 8.38636C66.0984 9.23011 67.2148 10.4148 67.9989 11.9403C68.783 13.4574 69.1751 15.2301 69.1751 17.2585C69.1751 19.2699 68.783 21.0384 67.9989 22.5639C67.2148 24.081 66.0984 25.2656 64.6495 26.1179C63.2092 26.9616 61.4961 27.3835 59.5103 27.3835ZM59.5359 23.1648C60.4393 23.1648 61.1935 22.9091 61.7987 22.3977C62.4038 21.8778 62.8597 21.1705 63.1665 20.2756C63.4819 19.3807 63.6396 18.3622 63.6396 17.2202C63.6396 16.0781 63.4819 15.0597 63.1665 14.1648C62.8597 13.2699 62.4038 12.5625 61.7987 12.0426C61.1935 11.5227 60.4393 11.2628 59.5359 11.2628C58.6239 11.2628 57.8569 11.5227 57.2347 12.0426C56.6211 12.5625 56.1566 13.2699 55.8413 14.1648C55.5344 15.0597 55.381 16.0781 55.381 17.2202C55.381 18.3622 55.5344 19.3807 55.8413 20.2756C56.1566 21.1705 56.6211 21.8778 57.2347 22.3977C57.8569 22.9091 58.6239 23.1648 59.5359 23.1648ZM81.5629 34.7727C79.7987 34.7727 78.2859 34.5298 77.0245 34.044C75.7717 33.5668 74.7745 32.9148 74.033 32.0881C73.2915 31.2614 72.81 30.3324 72.5884 29.3011L77.6254 28.6236C77.7788 29.0156 78.0217 29.3821 78.354 29.723C78.6864 30.0639 79.1254 30.3366 79.6708 30.5412C80.2248 30.7543 80.8981 30.8608 81.6907 30.8608C82.8754 30.8608 83.8512 30.571 84.6183 29.9915C85.3938 29.4205 85.7816 28.4616 85.7816 27.1151V23.5227H85.5515C85.3129 24.0682 84.9549 24.5838 84.4776 25.0696C84.0004 25.5554 83.3867 25.9517 82.6367 26.2585C81.8867 26.5653 80.9918 26.7188 79.9521 26.7188C78.4776 26.7188 77.1353 26.3778 75.9251 25.696C74.7234 25.0057 73.7646 23.9531 73.0487 22.5384C72.3413 21.1151 71.9876 19.3168 71.9876 17.1435C71.9876 14.919 72.3498 13.0611 73.0742 11.5696C73.7987 10.0781 74.7617 8.96165 75.9634 8.22017C77.1737 7.47869 78.4989 7.10795 79.9393 7.10795C81.0387 7.10795 81.9592 7.29545 82.7006 7.67045C83.4421 8.03693 84.0387 8.49716 84.4904 9.05114C84.9506 9.59659 85.3043 10.1335 85.5515 10.6619H85.756V7.36364H91.1637V27.1918C91.1637 28.8622 90.7546 30.2599 89.9364 31.3849C89.1183 32.5099 87.9847 33.3537 86.5359 33.9162C85.0955 34.4872 83.4379 34.7727 81.5629 34.7727ZM81.6779 22.6278C82.5558 22.6278 83.2972 22.4105 83.9023 21.9759C84.516 21.5327 84.9847 20.902 85.3086 20.0838C85.641 19.2571 85.8072 18.2685 85.8072 17.1179C85.8072 15.9673 85.6452 14.9702 85.3214 14.1264C84.9975 13.2741 84.5288 12.6136 83.9151 12.1449C83.3015 11.6761 82.5558 11.4418 81.6779 11.4418C80.783 11.4418 80.0288 11.6847 79.4151 12.1705C78.8015 12.6477 78.337 13.3125 78.0217 14.1648C77.7063 15.017 77.5487 16.0014 77.5487 17.1179C77.5487 18.2514 77.7063 19.2315 78.0217 20.0582C78.3455 20.8764 78.81 21.5114 79.4151 21.9631C80.0288 22.4062 80.783 22.6278 81.6779 22.6278ZM100.944 0.818181V27H95.4975V0.818181H100.944ZM114.255 27.3835C112.235 27.3835 110.496 26.9744 109.039 26.1562C107.59 25.3295 106.474 24.1619 105.69 22.6534C104.906 21.1364 104.513 19.3423 104.513 17.2713C104.513 15.2514 104.906 13.4787 105.69 11.9531C106.474 10.4276 107.577 9.23864 109.001 8.38636C110.433 7.53409 112.112 7.10795 114.038 7.10795C115.333 7.10795 116.539 7.31676 117.656 7.73438C118.781 8.14347 119.761 8.76136 120.596 9.58807C121.44 10.4148 122.096 11.4545 122.565 12.7074C123.033 13.9517 123.268 15.4091 123.268 17.0795V18.5753H106.687V15.2003H118.141C118.141 14.4162 117.971 13.7216 117.63 13.1165C117.289 12.5114 116.816 12.0384 116.211 11.6974C115.614 11.348 114.92 11.1733 114.127 11.1733C113.3 11.1733 112.567 11.3651 111.928 11.7486C111.298 12.1236 110.803 12.6307 110.445 13.2699C110.087 13.9006 109.904 14.6037 109.896 15.3793V18.5881C109.896 19.5597 110.075 20.3991 110.433 21.1065C110.799 21.8139 111.315 22.3594 111.979 22.7429C112.644 23.1264 113.433 23.3182 114.344 23.3182C114.95 23.3182 115.504 23.233 116.006 23.0625C116.509 22.892 116.94 22.6364 117.298 22.2955C117.656 21.9545 117.928 21.5369 118.116 21.0426L123.153 21.375C122.897 22.5852 122.373 23.642 121.58 24.5455C120.796 25.4403 119.782 26.1392 118.538 26.642C117.302 27.1364 115.874 27.3835 114.255 27.3835Z" fill="#818181"/>
</svg>
